<?xml version="1.0" encoding="utf-8"?>
<svg xmlns="http://www.w3.org/2000/svg"
	xmlns:xlink="http://www.w3.org/1999/xlink"
	width="23px" height="25px" viewBox="0 0 23 25">
<filter filterUnits="objectBoundingBox" x="0.00" y="0.00" width="100.00" height="100.00" id="filter0">
<feFlood flood-color="rgb(189,189,189)" result="coFloodOut1"/>
<feComposite in="coFloodOut1" in2="SourceAlpha" operator="in" result="coOverlay1"/>
<feBlend in="coOverlay1" in2="SourceGraphic" mode="normal" result="colorOverlay1"/>
</filter>
<path fillRule="evenodd" d="M 18.39 7.63C 17.33 7.63 16.37 7.2 15.67 6.51 15.67 6.51 8.01 10.91 8.01 10.91 8.18 11.34 8.28 11.81 8.28 12.3 8.28 12.77 8.18 13.22 8.02 13.64 8.02 13.64 15.59 18.36 15.59 18.36 16.3 17.62 17.29 17.15 18.39 17.15 20.52 17.15 22.25 18.87 22.25 20.97 22.25 23.07 20.52 24.79 18.39 24.79 16.27 24.79 14.54 23.07 14.54 20.97 14.54 20.52 14.63 20.09 14.78 19.68 14.78 19.68 7.19 14.95 7.19 14.95 6.49 15.66 5.51 16.11 4.43 16.11 2.3 16.11 0.57 14.4 0.57 12.3 0.57 10.19 2.3 8.48 4.43 8.48 5.49 8.48 6.46 8.91 7.16 9.61 7.16 9.61 14.81 5.21 14.81 5.21 14.64 4.78 14.54 4.31 14.54 3.82 14.54 1.71 16.27-0 18.39-0 20.52-0 22.25 1.71 22.25 3.82 22.25 5.92 20.52 7.63 18.39 7.63ZM 18.39 23.24C 19.65 23.24 20.68 22.22 20.68 20.97 20.68 19.72 19.65 18.7 18.39 18.7 17.58 18.7 16.86 19.13 16.46 19.77 16.45 19.78 16.45 19.79 16.44 19.81 16.44 19.81 16.43 19.82 16.43 19.82 16.23 20.16 16.1 20.55 16.1 20.97 16.1 22.22 17.13 23.24 18.39 23.24ZM 4.43 10.03C 3.16 10.03 2.14 11.05 2.14 12.3 2.14 13.55 3.16 14.56 4.43 14.56 5.23 14.56 5.94 14.15 6.34 13.52 6.35 13.52 6.35 13.51 6.35 13.51 6.35 13.51 6.35 13.51 6.36 13.5 6.58 13.15 6.71 12.74 6.71 12.3 6.71 11.86 6.58 11.45 6.36 11.1 6.34 11.07 6.3 11.05 6.27 11.01 6.26 10.99 6.26 10.96 6.25 10.94 5.83 10.39 5.17 10.03 4.43 10.03ZM 18.39 1.55C 17.13 1.55 16.1 2.56 16.1 3.82 16.1 5.06 17.13 6.08 18.39 6.08 19.65 6.08 20.68 5.06 20.68 3.82 20.68 2.56 19.65 1.55 18.39 1.55Z" fill="rgb(201,144,101)" filter="url(#filter0)"/></svg>