<?xml version="1.0" encoding="utf-8"?>
<svg xmlns="http://www.w3.org/2000/svg"
	xmlns:xlink="http://www.w3.org/1999/xlink"
	width="40px" height="39px" viewBox="0 0 40 39">
<path fillRule="evenodd" d="M 38.31 18.42C 38.25 18.43 38.19 18.44 38.12 18.44 37.59 18.44 37.12 18.06 37.03 17.52 36.38 13.68 34.57 10.19 31.79 7.41 29.02 4.64 25.52 2.82 21.69 2.17 21.08 2.07 20.68 1.5 20.78 0.89 20.89 0.29 21.45-0.12 22.05-0.02 26.34 0.72 30.25 2.74 33.36 5.85 36.46 8.96 38.49 12.86 39.22 17.15 39.32 17.75 38.91 18.33 38.31 18.42ZM 21.75 7.05C 24.35 7.49 26.73 8.73 28.61 10.61 30.5 12.49 31.73 14.87 32.17 17.47 32.27 18.08 31.87 18.66 31.26 18.76 31.19 18.77 31.14 18.77 31.07 18.77 30.54 18.77 30.07 18.4 29.98 17.85 29.61 15.7 28.6 13.74 27.03 12.18 25.47 10.62 23.52 9.6 21.36 9.24 20.75 9.14 20.36 8.55 20.47 7.95 20.57 7.35 21.14 6.95 21.75 7.05ZM 14.38 14.37C 13.77 14.99 13.15 15.63 12.48 16.25 12.98 17.36 13.67 18.45 14.7 19.75 16.82 22.36 19.03 24.37 21.46 25.92 21.7 26.07 21.98 26.21 22.27 26.35 22.48 26.46 22.69 26.57 22.91 26.68 22.91 26.68 25.51 24.09 25.51 24.09 26.34 23.26 27.31 22.83 28.32 22.83 29.34 22.83 30.3 23.27 31.1 24.1 31.1 24.1 35.61 28.63 35.61 28.63 36.44 29.45 36.87 30.43 36.87 31.45 36.87 32.46 36.45 33.45 35.63 34.3 35.28 34.67 34.92 35.02 34.56 35.36 34.05 35.86 33.55 36.33 33.13 36.85 33.12 36.86 33.1 36.87 33.09 36.89 31.84 38.24 30.25 38.93 28.35 38.93 28.19 38.93 28 38.92 27.83 38.91 25.01 38.73 22.49 37.67 20.6 36.77 15.65 34.38 11.32 30.98 7.72 26.68 4.75 23.11 2.76 19.78 1.43 16.19 0.88 14.73 0.18 12.49 0.38 10.09 0.51 8.6 1.11 7.32 2.16 6.27 2.16 6.27 4.95 3.45 4.95 3.45 4.96 3.44 4.96 3.44 4.97 3.43 5.79 2.64 6.76 2.22 7.77 2.22 8.77 2.22 9.72 2.64 10.52 3.43 11.05 3.92 11.57 4.45 12.06 4.96 12.31 5.22 12.57 5.49 12.83 5.74 12.83 5.74 15.07 7.99 15.07 7.99 16.8 9.71 16.8 11.95 15.07 13.68 14.84 13.91 14.61 14.14 14.38 14.37ZM 13.51 9.56C 13.51 9.56 11.27 7.31 11.27 7.31 11 7.04 10.74 6.78 10.49 6.51 9.99 6 9.51 5.51 9.01 5.04 9 5.03 8.99 5.03 8.98 5.02 8.72 4.75 8.3 4.44 7.78 4.44 7.36 4.44 6.94 4.65 6.53 5.03 6.53 5.03 3.73 7.83 3.73 7.83 3.05 8.51 2.68 9.31 2.59 10.27 2.47 11.78 2.75 13.37 3.52 15.42 4.76 18.77 6.63 21.9 9.43 25.28 12.83 29.33 16.92 32.53 21.57 34.78 23.27 35.6 25.54 36.55 27.98 36.71 28.1 36.72 28.23 36.72 28.36 36.72 29.64 36.72 30.62 36.3 31.45 35.41 31.96 34.81 32.5 34.27 33.04 33.76 33.39 33.42 33.72 33.11 34.04 32.76 34.88 31.89 34.88 31.02 34.03 30.19 34.03 30.19 29.5 25.66 29.5 25.66 29.49 25.65 29.49 25.65 29.48 25.64 29.23 25.36 28.81 25.04 28.3 25.04 27.78 25.04 27.34 25.38 27.06 25.66 27.06 25.66 24.25 28.47 24.25 28.47 24.11 28.61 23.68 29.04 23 29.04 22.73 29.04 22.46 28.97 22.18 28.83 22.15 28.81 22.12 28.79 22.09 28.77 21.85 28.62 21.57 28.48 21.27 28.34 20.94 28.17 20.6 28 20.26 27.79 17.62 26.12 15.23 23.94 12.96 21.14 12.96 21.14 12.95 21.13 12.95 21.13 11.7 19.55 10.88 18.21 10.3 16.8 10.29 16.78 10.28 16.75 10.27 16.73 10.12 16.26 9.99 15.57 10.7 14.86 10.71 14.84 10.73 14.83 10.74 14.82 11.46 14.18 12.11 13.52 12.8 12.81 13.04 12.58 13.27 12.34 13.51 12.11 14.38 11.23 14.38 10.43 13.51 9.56Z" fill="rgb(255,255,255)"/></svg>